<svg xmlns="http://www.w3.org/2000/svg" width="20" height="20" viewBox="0 0 20 20">
  <g id="Group_1" data-name="Group 1" transform="translate(-705.5 -703)">
    <path id="Combined_Shape" data-name="Combined Shape" d="M10,20A10,10,0,0,1,6.107.786a10,10,0,0,1,7.785,18.428A9.938,9.938,0,0,1,10,20ZM10,4A4.048,4.048,0,0,0,6.377,9.753,54.541,54.541,0,0,0,10.012,16a65.164,65.164,0,0,0,3.747-6.564h0A4.048,4.048,0,0,0,10,4Z" transform="translate(705.5 703)" fill="#fff"/>
    <path id="Path" d="M1.5,3A1.5,1.5,0,1,0,0,1.5,1.5,1.5,0,0,0,1.5,3Z" transform="translate(713.674 708.956)" fill="#fff"/>
  </g>
</svg>
