<svg xmlns="http://www.w3.org/2000/svg" width="20" height="20" viewBox="0 0 20 20">
  <g id="Viber" transform="translate(0 0)">
    <path id="Viber-2" data-name="Viber" d="M10,0A10,10,0,0,0,6.107,19.214,10,10,0,0,0,13.892.786,9.938,9.938,0,0,0,10,0Zm5.207,10.417h0a.355.355,0,0,1-.319-.182.974.974,0,0,1-.057-.409A7.217,7.217,0,0,0,14.722,8.8a4.723,4.723,0,0,0-1.834-3.047,4.833,4.833,0,0,0-2.779-.981c-.371-.021-.44-.034-.526-.1A.357.357,0,0,1,9.46,4.4a.365.365,0,0,1,.109-.283c.075-.069.13-.09.325-.09l.155,0c.172.006.419.026.55.041a5.506,5.506,0,0,1,1.832.543A5.021,5.021,0,0,1,13.906,5.68a4.82,4.82,0,0,1,1.008,1.384,6.575,6.575,0,0,1,.642,2.706c.014.35,0,.423-.075.521a.343.343,0,0,1-.274.127Zm-1.844,5.841a1.456,1.456,0,0,1-.626-.159,15.654,15.654,0,0,1-6.75-5.191A14.767,14.767,0,0,1,3.89,7.1C3.612,6.333,3.6,6,3.827,5.6A4.441,4.441,0,0,1,4.653,4.8a2.862,2.862,0,0,1,.933-.559.654.654,0,0,1,.135-.012,1.155,1.155,0,0,1,.359.058,1.359,1.359,0,0,1,.237.118A9.483,9.483,0,0,1,8.081,6.657a1.263,1.263,0,0,1,.2.872c-.063.224-.17.345-.636.72a3.5,3.5,0,0,0-.391.349.917.917,0,0,0-.128.446,3.3,3.3,0,0,0,.5,1.387A5.927,5.927,0,0,0,8.612,11.6a5.492,5.492,0,0,0,1.3.92,2.245,2.245,0,0,0,.924.3.622.622,0,0,0,.268-.056.968.968,0,0,0,.156-.087c.021-.019.188-.223.338-.409.32-.4.395-.468.613-.543a1.028,1.028,0,0,1,.331-.056,1.14,1.14,0,0,1,.518.133c.218.113.694.408,1,.62a14.772,14.772,0,0,1,1.382,1.125.9.9,0,0,1,.1.934,4.4,4.4,0,0,1-1.113,1.385,1.584,1.584,0,0,1-.951.393Zm.412-6.412a.431.431,0,0,1-.188-.039c-.152-.076-.2-.2-.2-.531a3.149,3.149,0,0,0-.362-1.468,3.005,3.005,0,0,0-1.1-1.147,3.755,3.755,0,0,0-1.52-.456.5.5,0,0,1-.373-.14A.36.36,0,0,1,10,5.619a.356.356,0,0,1,.347-.152,2.714,2.714,0,0,1,.387.037,3.807,3.807,0,0,1,2.738,1.636A3.944,3.944,0,0,1,14.1,8.889a3.24,3.24,0,0,1,0,.734.451.451,0,0,1-.18.2A.336.336,0,0,1,13.776,9.845Zm-1.417-.471a.373.373,0,0,1-.228-.073c-.094-.07-.124-.142-.146-.349a1.87,1.87,0,0,0-.154-.636,1.122,1.122,0,0,0-1-.629c-.243-.03-.317-.058-.4-.15a.368.368,0,0,1,.111-.553.291.291,0,0,1,.156-.036c.028,0,.061,0,.117,0a2.616,2.616,0,0,1,.336.041,1.891,1.891,0,0,1,.943.47,1.956,1.956,0,0,1,.587,1.223c.053.349.031.49-.093.6A.349.349,0,0,1,12.359,9.374Z" transform="translate(0 0)" fill="#fff"/>
  </g>
</svg>
